<svg xmlns="http://www.w3.org/2000/svg" width="1024" height="1024" viewBox="0 0 1024 1024">
<g>
<path d="M 482.50 703.63 C473.63,705.36 461.50,705.26 452.50,703.37 C445.49,701.90 441.57,700.16 364.00,664.22 C345.02,655.42 313.30,640.75 293.50,631.61 C257.15,614.83 252.00,611.78 252.00,607.06 C252.00,604.10 256.55,599.40 261.25,597.51 C264.85,596.07 301.51,588.07 348.50,578.47 C355.10,577.12 361.51,575.78 362.75,575.49 L 365.00 574.96 L 365.00 595.48 C365.00,614.58 365.14,616.14 366.97,617.97 C369.23,620.23 373.28,621.49 375.52,620.63 C376.87,620.11 377.02,613.81 376.78,566.77 C376.50,513.70 376.49,513.48 374.23,508.90 C372.62,505.63 364.80,497.35 347.14,480.26 C333.49,467.03 320.94,455.50 319.26,454.63 C314.30,452.07 308.30,451.16 294.28,450.87 L 281.06 450.59 L 277.10 456.13 C270.27,465.65 256.54,473.02 245.66,472.99 C235.95,472.96 225.05,468.15 217.83,460.71 C206.20,448.72 203.35,431.85 210.36,416.52 C221.47,392.25 256.54,386.90 274.06,406.80 C278.15,411.45 282.99,420.58 283.02,423.69 C283.02,424.68 283.36,425.99 283.77,426.58 C284.19,427.21 291.46,428.10 301.00,428.69 C320.05,429.88 325.49,431.47 334.74,438.54 C344.97,446.36 391.65,493.09 394.00,497.86 C398.62,507.23 398.96,512.09 398.98,568.23 L 399.00 620.95 L 401.73 619.91 C403.23,619.34 404.80,618.34 405.21,617.69 C405.63,617.03 405.98,605.41 405.98,591.86 C405.99,590.75 405.99,589.70 405.99,588.69 C405.99,572.24 405.99,567.69 408.02,566.45 C408.79,565.98 409.86,565.98 411.34,566.00 C411.57,566.00 411.82,566.00 412.08,566.00 L 415.00 566.00 L 415.00 626.95 L 417.49 628.59 C417.77,628.77 418.03,628.95 418.28,629.12 C419.22,629.78 419.98,630.30 420.59,630.16 C423.06,629.60 423.02,617.99 422.81,558.92 C422.80,555.07 422.79,551.03 422.77,546.77 L 422.50 464.50 L 419.64 459.07 C417.59,455.17 409.40,446.14 390.64,427.07 C376.26,412.46 349.55,385.17 331.30,366.44 L 298.10 332.38 L 286.80 332.44 C276.11,332.50 275.14,332.33 268.76,329.31 C260.48,325.38 253.45,318.53 249.48,310.50 C246.72,304.94 246.51,303.70 246.53,293.50 C246.54,283.50 246.80,281.98 249.35,276.73 C261.18,252.45 293.22,246.80 312.29,265.65 C325.07,278.27 327.56,299.27 318.06,314.25 L 315.31 318.57 L 372.47 376.97 C403.90,409.09 430.12,435.54 430.74,435.75 C433.50,436.67 428.73,425.05 423.76,418.72 C422.12,416.64 419.93,412.70 418.89,409.96 C417.11,405.26 417.00,401.32 417.00,339.52 L 417.00 274.06 L 411.56 271.48 C395.73,264.00 386.25,246.63 388.92,230.02 C391.73,212.56 403.94,200.11 421.39,196.92 C433.29,194.75 447.74,199.66 456.09,208.72 C473.72,227.84 467.86,259.26 444.52,270.71 L 439.00 273.42 L 439.04 338.96 C439.08,391.45 439.36,405.20 440.44,408.00 C441.63,411.11 442.58,413.18 443.31,415.32 C446.02,423.17 446.02,431.96 446.01,496.29 C446.01,503.67 446.01,511.78 446.01,520.70 C446.04,616.40 446.31,630.00 448.18,630.00 C448.68,630.00 450.17,628.84 451.48,627.43 C453.44,625.31 454.21,625.04 455.87,625.93 C456.97,626.52 458.35,627.00 458.93,627.00 C459.68,627.00 460.00,593.09 460.01,513.25 C460.01,445.01 460.40,397.14 460.98,393.61 C463.15,380.31 465.01,377.88 501.34,340.68 C521.63,319.90 535.65,304.74 537.11,302.00 L 539.50 297.50 L 540.09 202.35 L 532.64 198.67 C515.86,190.37 506.12,172.31 508.71,154.30 C512.27,129.59 534.79,112.92 559.07,117.01 C588.68,122.01 603.89,154.38 589.26,181.25 C584.80,189.46 574.16,198.18 564.75,201.35 C563.12,201.90 563.00,204.99 562.99,247.22 C562.99,273.52 562.55,295.17 561.95,298.86 C561.39,302.36 559.57,308.21 557.91,311.86 C555.17,317.91 551.94,321.47 521.50,352.00 C495.35,378.23 487.60,386.59 485.80,390.50 L 483.50 395.50 L 483.23 510.77 C483.21,517.95 483.20,524.69 483.18,531.03 C482.97,612.63 482.94,626.71 485.55,627.22 C486.10,627.33 486.76,626.84 487.56,626.26 C487.85,626.04 488.17,625.81 488.51,625.59 L 491.00 623.95 L 491.00 552.00 L 504.00 552.00 L 504.00 580.94 C504.00,609.72 504.01,609.90 506.22,611.44 C507.44,612.30 509.46,613.00 510.69,613.00 L 512.94 613.00 L 513.50 450.50 L 515.79 444.85 C517.04,441.74 519.29,437.38 520.79,435.16 C522.28,432.95 542.13,412.32 564.91,389.32 C587.69,366.32 612.40,341.34 619.83,333.81 L 633.35 320.13 L 630.25 314.31 C619.45,294.05 627.37,269.35 647.78,259.69 C654.01,256.73 655.26,256.50 665.00,256.51 C674.94,256.52 675.86,256.70 682.31,259.93 C706.05,271.80 710.97,304.13 691.94,323.15 C683.09,332.00 669.21,336.53 657.94,334.23 L 652.50 333.13 L 597.69 387.81 C567.54,417.89 541.71,444.46 540.28,446.85 C538.86,449.25 537.09,453.75 536.36,456.85 C534.86,463.22 534.50,486.35 535.91,485.83 C536.41,485.65 549.28,473.58 564.52,459.00 C579.76,444.42 594.53,431.02 597.36,429.22 C607.25,422.90 611.18,422.26 657.31,419.51 C680.51,418.12 700.58,416.88 701.89,416.74 C703.88,416.54 704.51,415.61 705.64,411.18 C707.45,404.08 711.05,398.16 716.89,392.70 C725.48,384.67 735.24,381.31 747.13,382.31 C764.77,383.79 778.87,397.09 782.02,415.22 C784.98,432.19 775.60,449.65 759.19,457.70 C754.11,460.20 752.43,460.50 743.48,460.50 C734.20,460.50 732.97,460.26 726.89,457.27 C720.77,454.26 713.02,447.32 708.99,441.26 C708.71,440.83 708.69,440.47 708.54,440.18 C707.88,438.96 704.59,439.15 665.54,441.44 C660.09,441.76 653.94,442.12 647.00,442.53 C629.55,443.54 617.79,444.67 614.81,445.62 C609.35,447.37 606.66,449.67 573.50,480.98 C560.30,493.45 547.60,505.34 545.28,507.41 C542.96,509.48 539.81,513.73 538.28,516.84 L 535.50 522.50 L 535.50 612.50 L 538.15 612.81 C540.01,613.02 541.29,612.43 542.40,610.83 C543.76,608.90 544.00,604.85 544.00,583.78 C544.00,564.62 544.28,559.00 545.25,559.00 C547.07,559.00 569.39,566.24 668.50,598.99 C702.05,610.07 731.40,620.25 733.73,621.60 C740.66,625.63 741.99,630.77 737.25,635.19 C733.12,639.04 731.70,639.57 712.36,644.53 C668.33,655.83 640.74,662.97 610.50,670.88 C588.14,676.74 574.26,680.34 517.00,695.15 C501.88,699.07 486.35,702.88 482.50,703.63 ZM 487.50 881.03 C469.93,886.81 467.71,887.31 458.00,887.64 C446.97,888.01 440.51,886.83 433.25,883.13 C431.19,882.07 407.90,869.18 381.50,854.47 C332.91,827.39 323.82,822.36 282.50,799.63 C263.75,789.32 258.55,785.98 254.37,781.58 C252.71,779.82 251.38,778.57 250.31,777.12 C245.98,771.26 245.98,762.20 246.00,703.89 C246.00,700.20 246.00,696.32 246.00,692.22 L 246.00 617.79 L 249.73 621.07 C251.78,622.87 257.29,626.11 261.98,628.27 C286.95,639.80 361.81,674.76 398.90,692.21 C449.33,715.95 450.95,716.48 471.44,715.72 C484.53,715.23 486.96,714.81 506.50,709.56 C518.05,706.46 543.92,699.64 564.00,694.40 C584.08,689.15 620.75,679.52 645.50,672.98 C670.25,666.44 700.10,658.60 711.82,655.57 C732.72,650.15 742.06,646.48 744.38,642.77 C744.98,641.79 745.84,641.00 746.27,641.00 C746.71,641.00 746.94,673.06 746.78,712.25 L 746.50 783.50 L 744.20 788.50 C741.45,794.46 736.88,799.46 731.76,802.10 C729.71,803.16 717.78,807.20 705.26,811.08 C679.19,819.15 651.57,827.94 608.00,842.03 C591.22,847.46 561.53,857.05 542.00,863.34 C522.47,869.63 497.95,877.59 487.50,881.03 ZM 544.00 179.41 C556.41,184.77 571.41,175.22 572.77,161.09 C573.43,154.12 569.68,146.14 563.95,142.35 C558.15,138.51 548.21,137.83 542.26,140.87 C532.97,145.61 528.28,156.31 531.39,165.67 C533.24,171.24 538.60,177.08 544.00,179.41 ZM 510.66 812.94 C512.12,814.09 514.03,814.82 514.91,814.57 C515.78,814.31 521.90,812.54 528.50,810.64 C535.10,808.73 548.38,804.84 558.00,801.97 C567.62,799.11 576.97,796.35 578.76,795.84 C583.21,794.56 586.00,791.30 586.00,787.38 C586.00,784.05 583.87,781.00 581.53,781.00 C579.60,781.00 514.18,799.83 511.94,801.03 C507.37,803.48 506.69,809.82 510.66,812.94 ZM 510.25 782.04 C513.16,784.78 513.17,784.78 546.35,775.50 C582.41,765.41 582.98,765.20 585.31,761.22 C586.95,758.41 587.04,757.52 585.99,754.97 C584.96,752.50 584.19,752.00 581.34,752.00 C579.46,752.00 563.20,756.06 545.21,761.03 C510.39,770.63 508.00,771.69 508.00,777.52 C508.00,778.84 509.01,780.88 510.25,782.04 ZM 736.50 438.10 C741.55,440.44 745.42,440.45 750.54,438.12 C756.74,435.30 761.99,427.68 761.99,421.50 C761.99,418.15 759.39,412.33 756.43,409.06 C748.08,399.81 732.53,402.07 727.09,413.32 C722.43,422.93 726.43,433.44 736.50,438.10 ZM 657.31 311.61 C663.53,314.56 668.53,314.21 674.29,310.42 C692.88,298.17 677.63,269.72 657.40,278.91 C642.66,285.60 642.61,304.63 657.31,311.61 ZM 277.20 309.93 C292.55,317.73 308.83,300.37 300.67,284.91 C294.44,273.09 276.00,272.86 269.23,284.52 C267.35,287.75 266.98,289.65 267.25,294.63 C267.65,302.00 270.63,306.59 277.20,309.93 ZM 422.27 252.93 C429.42,255.09 437.33,252.29 441.91,245.97 C447.16,238.72 446.78,230.24 440.91,223.55 C437.18,219.30 432.37,217.64 425.46,218.21 C410.10,219.49 403.89,237.53 415.12,248.23 C417.27,250.27 420.49,252.39 422.27,252.93 ZM 240.09 450.75 C256.52,456.21 270.53,435.29 259.35,422.01 C255.62,417.58 251.91,416.00 245.20,416.00 C236.20,416.00 229.90,421.07 227.91,429.90 C225.99,438.43 231.53,447.91 240.09,450.75 ZM 401.22 815.44 C404.08,817.45 404.59,817.41 407.00,815.00 C408.92,813.08 409.00,811.67 409.00,780.55 C409.00,758.19 408.64,747.31 407.85,745.57 C406.46,742.51 403.80,741.50 401.04,742.98 C399.05,744.05 399.00,744.88 399.00,778.98 L 399.00 813.89 ZM 379.07 803.37 C381.29,806.19 383.86,806.74 385.80,804.80 C386.69,803.91 387.00,794.66 387.00,769.36 L 387.00 735.11 L 384.78 733.56 C381.92,731.55 381.41,731.59 379.00,734.00 C377.08,735.92 377.00,737.33 377.00,768.37 C377.00,799.59 377.07,800.82 379.07,803.37 ZM 316.22 773.44 C319.08,775.45 319.59,775.41 322.00,773.00 C323.92,771.08 324.00,769.67 324.00,738.72 C324.00,703.83 323.73,702.00 318.64,702.00 C314.06,702.00 314.00,702.49 314.00,738.14 C314.00,771.88 314.00,771.89 316.22,773.44 ZM 293.56 761.78 C295.25,764.20 298.89,764.71 300.80,762.80 C301.69,761.91 302.00,752.88 302.00,728.37 C302.00,699.50 301.79,694.94 300.43,693.57 C299.56,692.71 298.02,692.00 297.00,692.00 C295.98,692.00 294.44,692.71 293.57,693.57 C291.22,695.92 291.21,758.42 293.56,761.78 ZM 336.64 783.16 C338.82,785.56 342.65,785.51 343.96,783.07 C344.62,781.85 345.00,769.14 345.00,748.68 C345.00,718.31 344.88,716.07 343.10,713.88 C341.47,711.87 340.81,711.68 338.35,712.54 L 335.50 713.55 L 335.24 747.43 C335.00,777.90 335.14,781.50 336.64,783.16 ZM 273.19 751.96 C276.00,754.58 277.51,754.53 279.44,751.78 C280.77,749.88 281.00,744.94 281.00,718.00 C281.00,683.89 280.72,682.00 275.64,682.00 C271.07,682.00 271.00,682.55 271.00,717.16 C271.00,749.58 271.02,749.94 273.19,751.96 ZM 358.66 793.95 C361.00,795.79 361.56,795.87 363.41,794.65 C365.45,793.29 365.51,792.49 365.76,760.09 C365.94,738.36 365.67,726.24 364.98,724.96 C363.79,722.74 359.11,722.29 357.20,724.20 C356.31,725.09 356.00,734.12 356.00,758.63 L 356.00 791.85 ZM 682.34 736.93 C683.63,737.41 687.66,736.80 692.95,735.35 C697.64,734.06 701.79,733.00 702.17,733.00 C702.54,733.00 704.22,731.84 705.90,730.43 C713.32,724.19 711.18,711.96 702.68,712.02 C699.29,712.04 684.58,716.08 681.10,717.95 C678.43,719.37 676.00,724.08 676.00,727.82 C676.00,731.12 679.25,735.79 682.34,736.93 Z" fill="rgb(14,14,14)"/>
</g>
</svg>
