<?xml version="1.0" standalone="no"?>
<!DOCTYPE svg PUBLIC "-//W3C//DTD SVG 1.1//EN" "http://www.w3.org/Graphics/SVG/1.1/DTD/svg11.dtd">
<svg version="1.1" xmlns="http://www.w3.org/2000/svg" viewBox="0 0 563.728515625 585.16796875" width="1127.45703125" height="1170.3359375"><!-- svg-source:excalidraw --><metadata></metadata><defs><style class="style-fonts">
      </style></defs><g stroke-linecap="round" transform="translate(10 147.583984375) rotate(0 28.513671875 28.513671875)"><path d="M38.68 1.56 C44.08 2.5, 47.87 6.81, 50.86 11.61 C53.85 16.41, 57.45 23.88, 56.63 30.35 C55.81 36.82, 50.46 45.84, 45.95 50.43 C41.44 55.01, 35.6 57.39, 29.56 57.85 C23.52 58.32, 14.5 57.08, 9.7 53.2 C4.9 49.32, 2.07 41.14, 0.75 34.57 C-0.57 28.01, -1.25 19.2, 1.78 13.79 C4.81 8.39, 11.1 3.57, 18.91 2.12 C26.71 0.67, 43.15 2.78, 48.62 5.1 C54.1 7.42, 52.07 15.25, 51.76 16.06 M51.52 12.26 C56.39 16.48, 58.49 24.5, 58.74 29.64 C59 34.77, 57.54 38.36, 53.06 43.07 C48.57 47.77, 38.5 56.34, 31.82 57.85 C25.14 59.36, 17.69 55.09, 12.98 52.15 C8.27 49.2, 5.15 45.77, 3.58 40.19 C2 34.6, 2.32 24.28, 3.53 18.64 C4.75 13, 6.52 9.61, 10.87 6.36 C15.21 3.1, 23 -1.36, 29.59 -0.91 C36.17 -0.47, 47.14 7, 50.38 9 C53.62 11, 49.81 10.63, 49.05 11.07" stroke="#1e1e1e" stroke-width="2" fill="none"></path></g><g stroke-linecap="round" transform="translate(252.365234375 10) rotate(0 28.513671875 28.513671875)"><path d="M6.4 11.03 C9.77 6.08, 17.89 1.64, 23.73 0.21 C29.57 -1.21, 35.83 -0.55, 41.44 2.5 C47.05 5.56, 54.95 12.63, 57.41 18.53 C59.86 24.44, 58.9 31.81, 56.17 37.93 C53.43 44.05, 46.49 52.42, 41 55.26 C35.5 58.09, 29.25 56.29, 23.2 54.92 C17.16 53.54, 8.71 51.39, 4.71 47 C0.72 42.61, -2.22 35.75, -0.77 28.58 C0.69 21.41, 9.13 8.62, 13.46 3.99 C17.79 -0.63, 24.84 0.14, 25.21 0.8 M47.33 6 C51.99 9.18, 54.53 18.11, 55.27 23.84 C56.01 29.57, 54.24 35.51, 51.78 40.38 C49.33 45.26, 45.42 50.77, 40.53 53.1 C35.64 55.42, 28.27 56.14, 22.46 54.33 C16.65 52.53, 9.06 47.45, 5.65 42.28 C2.24 37.11, 1.82 29.44, 1.99 23.3 C2.17 17.16, 2.32 8.93, 6.69 5.44 C11.06 1.94, 22.13 1.98, 28.2 2.31 C34.28 2.63, 40.5 6.35, 43.13 7.37 C45.77 8.39, 44.29 8.54, 44.01 8.45" stroke="#1e1e1e" stroke-width="2" fill="none"></path></g><g stroke-linecap="round" transform="translate(493.091796875 141.20703125) rotate(0 28.513671875 28.513671875)"><path d="M16.73 0.75 C21.76 -1.85, 31.71 -2.68, 37.42 -0.47 C43.12 1.75, 47.89 8.71, 50.97 14.03 C54.04 19.36, 56.08 25.54, 55.87 31.48 C55.66 37.42, 53.78 45.29, 49.71 49.69 C45.64 54.09, 37.6 57.31, 31.47 57.88 C25.34 58.44, 18.15 56.99, 12.93 53.08 C7.72 49.16, 1.86 40.84, 0.17 34.4 C-1.51 27.95, -2.43 19.78, 2.8 14.41 C8.03 9.04, 24.69 3.49, 31.55 2.17 C38.41 0.84, 43.93 6.29, 43.94 6.47 M16.69 0.43 C22.61 -2.18, 32.43 -2.74, 38.63 -0.84 C44.83 1.07, 50.36 6.03, 53.9 11.84 C57.44 17.66, 60.49 28.12, 59.88 34.03 C59.27 39.95, 55.39 43.74, 50.24 47.34 C45.09 50.94, 35.75 55.36, 28.96 55.62 C22.16 55.87, 14.34 51.95, 9.46 48.87 C4.57 45.8, 0.43 42.72, -0.34 37.16 C-1.11 31.59, 2.44 20.95, 4.83 15.5 C7.22 10.05, 11.78 6.69, 14.01 4.46 C16.24 2.24, 17.87 1.68, 18.22 2.17" stroke="#1e1e1e" stroke-width="2" fill="none"></path></g><g stroke-linecap="round" transform="translate(283.763671875 298.19140625) rotate(0 28.513671875 28.513671875)"><path d="M19.86 1.22 C25.09 -0.88, 33.68 1.44, 39.32 3.53 C44.96 5.63, 50.56 8.65, 53.69 13.8 C56.83 18.96, 59.59 28.38, 58.14 34.47 C56.68 40.57, 49.83 46.4, 44.97 50.39 C40.11 54.38, 34.83 58.73, 29 58.4 C23.17 58.07, 14.61 52.44, 9.97 48.38 C5.34 44.33, 1.83 39.98, 1.16 34.05 C0.5 28.12, 2.07 18.09, 6 12.79 C9.92 7.49, 21.05 4.08, 24.73 2.23 C28.42 0.39, 28.15 1.6, 28.11 1.7 M26.78 -0.23 C32.96 -1.68, 43.84 -0.47, 48.62 3.32 C53.4 7.12, 54.81 16.03, 55.45 22.52 C56.09 29.02, 55.37 37.21, 52.44 42.31 C49.51 47.41, 43.84 50.84, 37.86 53.14 C31.87 55.43, 22.06 57.84, 16.52 56.11 C10.98 54.38, 7.79 47.76, 4.62 42.76 C1.45 37.75, -3.46 31.73, -2.48 26.05 C-1.5 20.37, 5.76 13.39, 10.51 8.68 C15.25 3.96, 23.21 -1.19, 25.99 -2.24 C28.77 -3.29, 27.2 1.11, 27.19 2.37" stroke="#1e1e1e" stroke-width="2" fill="none"></path></g><g stroke-linecap="round" transform="translate(496.701171875 440.515625) rotate(0 28.513671875 28.513671875)"><path d="M27.36 0.14 C33.1 -0.32, 43.15 4.07, 47.93 7.77 C52.71 11.47, 55.05 16.31, 56.05 22.36 C57.05 28.4, 56.93 38.59, 53.93 44.03 C50.93 49.47, 43.88 52.82, 38.06 55.01 C32.24 57.2, 24.9 58.98, 19.02 57.16 C13.15 55.34, 6.11 49.87, 2.81 44.07 C-0.5 38.28, -2.2 28.67, -0.83 22.39 C0.55 16.1, 3.2 9.42, 11.04 6.37 C18.88 3.32, 39.3 2.28, 46.23 4.11 C53.16 5.94, 53.25 16.92, 52.62 17.37 M21.3 3.63 C26.72 0.64, 35.23 -1.42, 40.91 0.23 C46.59 1.88, 52.71 8.05, 55.38 13.51 C58.06 18.97, 58.73 26.5, 56.97 32.99 C55.21 39.49, 49.69 48.45, 44.82 52.49 C39.95 56.53, 33.21 57.24, 27.73 57.24 C22.25 57.25, 16.7 56.07, 11.94 52.5 C7.19 48.94, 0.73 42.18, -0.79 35.87 C-2.3 29.57, -0.23 20.12, 2.87 14.67 C5.97 9.22, 14.61 5.38, 17.82 3.17 C21.02 0.96, 21.47 0.89, 22.11 1.43" stroke="#1e1e1e" stroke-width="2" fill="none"></path></g><g stroke-linecap="round" transform="translate(163.541015625 518.140625) rotate(0 28.513671875 28.513671875)"><path d="M45.99 5.01 C50.99 8.82, 56.45 17.99, 57.65 24.17 C58.84 30.35, 56.5 36.93, 53.14 42.1 C49.78 47.27, 43.2 53.06, 37.5 55.21 C31.79 57.36, 24.68 56.95, 18.93 55.01 C13.17 53.07, 5.86 49.03, 2.98 43.57 C0.11 38.1, 0.25 28.55, 1.67 22.21 C3.09 15.86, 7.44 8.91, 11.5 5.48 C15.55 2.04, 18.61 -0.34, 26 1.59 C33.39 3.52, 51.1 11.57, 55.86 17.05 C60.62 22.52, 55.37 34.4, 54.56 34.45 M52.07 12.64 C55.65 17.38, 58.92 25.13, 58.16 30.92 C57.4 36.71, 52.29 43.39, 47.51 47.37 C42.74 51.35, 35.4 54.03, 29.5 54.8 C23.61 55.56, 17.2 55.2, 12.14 51.96 C7.08 48.72, 0.38 41, -0.85 35.35 C-2.08 29.7, 1.9 23.24, 4.75 18.05 C7.61 12.87, 10.82 7.42, 16.29 4.25 C21.77 1.08, 31.81 -2.51, 37.6 -0.95 C43.39 0.61, 48.37 11.4, 51.02 13.6 C53.67 15.8, 53.32 12.6, 53.52 12.23" stroke="#1e1e1e" stroke-width="2" fill="none"></path></g><g transform="translate(65.66015625 158.826171875) rotate(0 92.88671875 -48.263671875)" stroke="none"><path fill="#1e1e1e" d="M -0.35,-1.54 Q -0.35,-1.54 3.13,-2.32 6.62,-3.09 8.40,-3.57 10.19,-4.05 13.83,-4.78 17.47,-5.52 20.48,-5.82 23.49,-6.13 28.56,-7.17 33.63,-8.20 37.51,-9.37 41.39,-10.55 43.71,-11.38 46.03,-12.22 49.52,-14.54 53.00,-16.86 55.36,-18.50 57.72,-20.13 62.15,-22.89 66.58,-25.65 70.25,-27.59 73.92,-29.54 76.19,-30.54 78.45,-31.55 81.53,-33.22 84.61,-34.89 86.96,-36.23 89.32,-37.57 90.39,-38.38 91.46,-39.19 93.04,-40.00 94.63,-40.82 98.47,-42.55 102.31,-44.27 105.04,-45.22 107.78,-46.17 111.40,-47.25 115.02,-48.32 117.56,-49.17 120.10,-50.02 121.24,-50.63 122.39,-51.23 123.95,-52.23 125.52,-53.22 126.99,-54.43 128.46,-55.65 129.21,-56.54 129.96,-57.43 131.63,-59.02 133.31,-60.60 133.97,-61.48 134.64,-62.36 135.51,-63.53 136.38,-64.70 138.47,-66.97 140.56,-69.23 141.31,-70.13 142.06,-71.03 143.14,-72.42 144.22,-73.82 145.34,-75.04 146.45,-76.26 147.83,-77.70 149.21,-79.13 150.23,-80.17 151.25,-81.22 152.31,-82.21 153.36,-83.19 154.20,-84.10 155.03,-85.00 156.10,-85.70 157.17,-86.39 159.02,-87.16 160.88,-87.92 161.82,-88.48 162.76,-89.04 163.79,-89.90 164.82,-90.75 165.73,-91.66 166.64,-92.56 168.80,-93.64 170.97,-94.73 172.53,-95.58 174.09,-96.42 175.11,-96.93 176.13,-97.44 177.57,-97.79 179.00,-98.14 180.48,-98.53 181.95,-98.91 183.08,-99.16 184.20,-99.42 184.71,-99.57 185.22,-99.71 185.75,-99.69 186.29,-99.66 186.78,-99.47 187.28,-99.28 187.69,-98.94 188.10,-98.60 188.37,-98.15 188.65,-97.69 188.77,-97.17 188.89,-96.66 188.84,-96.13 188.79,-95.60 188.57,-95.11 188.35,-94.63 187.99,-94.24 187.62,-93.85 187.16,-93.59 186.69,-93.34 186.16,-93.25 185.64,-93.16 185.11,-93.24 184.59,-93.32 184.12,-93.57 183.64,-93.81 183.27,-94.19 182.90,-94.58 182.68,-95.06 182.45,-95.54 182.39,-96.07 182.32,-96.59 182.43,-97.11 182.54,-97.64 182.81,-98.09 183.08,-98.55 183.49,-98.90 183.89,-99.25 184.38,-99.45 184.87,-99.65 185.40,-99.69 185.93,-99.72 186.45,-99.58 186.96,-99.44 187.41,-99.15 187.85,-98.85 188.17,-98.43 188.50,-98.01 188.67,-97.51 188.85,-97.01 188.85,-96.48 188.86,-95.94 188.69,-95.44 188.53,-94.93 188.21,-94.51 187.89,-94.08 187.45,-93.78 187.02,-93.48 187.02,-93.48 187.02,-93.48 184.26,-92.80 181.51,-92.12 180.05,-91.95 178.59,-91.78 177.58,-91.41 176.56,-91.04 175.09,-90.33 173.61,-89.62 171.94,-88.60 170.27,-87.57 169.05,-86.63 167.82,-85.68 166.58,-85.08 165.34,-84.47 164.24,-83.88 163.14,-83.29 161.01,-82.13 158.89,-80.98 157.94,-80.17 157.00,-79.36 156.05,-78.45 155.10,-77.54 154.16,-76.52 153.21,-75.51 151.40,-73.82 149.59,-72.12 148.59,-71.38 147.58,-70.63 146.31,-69.41 145.05,-68.19 144.19,-67.40 143.34,-66.62 141.39,-64.44 139.44,-62.26 138.42,-61.06 137.39,-59.85 136.52,-59.05 135.66,-58.25 134.07,-56.57 132.49,-54.90 131.49,-54.05 130.50,-53.20 128.87,-51.85 127.25,-50.49 125.46,-49.36 123.67,-48.22 122.34,-47.79 121.02,-47.35 118.44,-46.45 115.86,-45.54 112.33,-44.45 108.80,-43.35 106.21,-42.38 103.63,-41.42 99.84,-39.61 96.05,-37.80 94.58,-37.17 93.10,-36.54 91.86,-35.91 90.63,-35.28 88.25,-33.93 85.87,-32.57 82.70,-30.85 79.53,-29.13 77.35,-28.16 75.16,-27.19 71.58,-25.29 67.99,-23.39 63.62,-20.66 59.25,-17.93 56.87,-16.27 54.49,-14.61 50.74,-12.13 46.98,-9.65 44.59,-8.78 42.20,-7.90 38.20,-6.66 34.20,-5.43 29.01,-4.34 23.81,-3.24 20.95,-2.91 18.09,-2.57 14.52,-1.78 10.96,-0.99 9.13,-0.57 7.31,-0.14 3.83,0.69 0.35,1.54 0.16,1.56 -0.02,1.58 -0.21,1.56 -0.39,1.53 -0.57,1.46 -0.75,1.39 -0.91,1.28 -1.06,1.17 -1.19,1.02 -1.31,0.88 -1.40,0.71 -1.49,0.54 -1.53,0.35 -1.57,0.17 -1.57,-0.02 -1.57,-0.21 -1.52,-0.39 -1.47,-0.58 -1.38,-0.75 -1.29,-0.91 -1.16,-1.06 -1.03,-1.20 -0.87,-1.30 -0.71,-1.41 -0.53,-1.48 -0.35,-1.54 -0.35,-1.54 L -0.35,-1.54 Z"></path></g><g transform="translate(317.4296875 50.591796875) rotate(0 106.541015625 48.353515625)" stroke="none"><path fill="#1e1e1e" d="M 0.92,-1.26 Q 0.92,-1.26 3.09,0.37 5.27,2.01 9.87,4.75 14.48,7.50 17.50,9.31 20.52,11.12 25.41,14.01 30.31,16.89 34.12,18.86 37.93,20.83 44.29,24.20 50.66,27.57 55.79,29.80 60.93,32.04 72.40,36.10 83.88,40.16 93.47,43.78 103.06,47.39 109.63,50.03 116.20,52.67 123.67,55.67 131.14,58.66 134.63,60.04 138.12,61.42 143.59,63.89 149.06,66.36 153.85,68.51 158.64,70.65 161.67,71.76 164.70,72.86 168.14,74.13 171.57,75.40 173.73,76.29 175.89,77.18 178.57,78.32 181.25,79.45 183.02,80.75 184.79,82.05 186.34,83.13 187.88,84.22 189.89,85.51 191.91,86.80 196.20,88.38 200.50,89.95 203.10,91.02 205.69,92.09 207.82,92.96 209.95,93.84 210.94,94.56 211.93,95.28 212.14,95.17 212.36,95.07 212.59,95.03 212.83,95.00 213.06,95.05 213.29,95.09 213.50,95.21 213.71,95.33 213.86,95.51 214.02,95.68 214.12,95.90 214.21,96.12 214.23,96.36 214.25,96.59 214.19,96.82 214.13,97.05 214.00,97.25 213.87,97.45 213.69,97.60 213.50,97.75 213.28,97.83 213.06,97.91 212.82,97.92 212.58,97.92 212.35,97.85 212.13,97.78 211.94,97.64 211.74,97.50 211.60,97.31 211.47,97.12 211.40,96.89 211.33,96.66 211.34,96.43 211.34,96.19 211.43,95.97 211.51,95.74 211.66,95.56 211.81,95.37 212.01,95.25 212.21,95.12 212.44,95.06 212.67,95.01 212.91,95.03 213.14,95.05 213.36,95.14 213.58,95.24 213.75,95.39 213.93,95.55 214.05,95.76 214.16,95.97 214.21,96.20 214.25,96.43 214.22,96.67 214.18,96.90 214.08,97.12 213.97,97.33 213.80,97.50 213.64,97.66 213.64,97.66 213.64,97.66 211.25,97.10 208.87,96.54 206.72,95.71 204.58,94.89 202.01,93.91 199.44,92.93 194.80,91.29 190.16,89.66 187.71,88.19 185.26,86.72 184.20,85.46 183.15,84.20 181.68,83.03 180.21,81.86 177.55,80.74 174.89,79.61 172.77,78.74 170.65,77.87 167.23,76.60 163.80,75.33 160.68,74.19 157.56,73.06 152.77,70.91 147.97,68.76 142.57,66.32 137.16,63.87 133.66,62.49 130.15,61.12 122.68,58.12 115.21,55.13 108.67,52.50 102.13,49.88 92.56,46.28 82.99,42.68 71.43,38.59 59.86,34.50 54.63,32.23 49.40,29.95 43.04,26.60 36.68,23.25 32.80,21.26 28.91,19.28 24.00,16.41 19.08,13.55 16.04,11.77 13.01,9.98 8.26,7.20 3.51,4.42 1.29,2.84 -0.92,1.26 -1.06,1.13 -1.19,1.00 -1.30,0.84 -1.40,0.68 -1.46,0.50 -1.52,0.33 -1.54,0.14 -1.56,-0.04 -1.53,-0.23 -1.50,-0.41 -1.43,-0.59 -1.36,-0.76 -1.25,-0.91 -1.13,-1.06 -0.99,-1.18 -0.85,-1.31 -0.68,-1.39 -0.51,-1.47 -0.32,-1.51 -0.14,-1.55 0.04,-1.55 0.23,-1.54 0.41,-1.49 0.59,-1.44 0.75,-1.35 0.92,-1.26 0.92,-1.26 L 0.92,-1.26 Z"></path></g><g transform="translate(349.87890625 311.912109375) rotate(0 80.951171875 -62.2265625)" stroke="none"><path fill="#1e1e1e" d="M -1.78,-0.22 Q -1.78,-0.22 -1.75,-1.11 -1.72,-2.00 -1.28,-2.99 -0.84,-3.98 0.75,-5.57 2.35,-7.16 4.61,-10.24 6.86,-13.32 10.89,-18.21 14.92,-23.10 20.67,-30.98 26.42,-38.87 29.94,-44.06 33.45,-49.25 36.41,-54.66 39.37,-60.07 41.43,-64.48 43.49,-68.88 45.88,-74.37 48.27,-79.86 49.75,-83.58 51.23,-87.31 53.18,-90.51 55.12,-93.71 56.57,-95.89 58.03,-98.07 61.30,-100.79 64.57,-103.51 67.82,-105.70 71.06,-107.89 73.12,-109.17 75.18,-110.44 78.59,-112.11 81.99,-113.77 83.52,-114.61 85.05,-115.44 87.18,-117.25 89.30,-119.05 90.33,-120.08 91.37,-121.12 92.51,-122.24 93.64,-123.37 96.85,-123.80 100.05,-124.22 102.76,-124.15 105.47,-124.09 106.94,-124.16 108.41,-124.23 110.80,-124.15 113.19,-124.07 115.93,-124.02 118.66,-123.96 120.05,-124.05 121.43,-124.14 123.17,-124.40 124.91,-124.67 126.82,-124.99 128.74,-125.31 131.01,-125.31 133.29,-125.31 134.96,-125.36 136.64,-125.41 138.10,-125.47 139.56,-125.53 140.68,-125.73 141.79,-125.92 145.65,-126.08 149.51,-126.24 152.92,-126.25 156.34,-126.26 158.59,-126.42 160.83,-126.57 161.18,-126.53 161.52,-126.48 161.84,-126.33 162.15,-126.18 162.40,-125.93 162.65,-125.69 162.81,-125.38 162.97,-125.06 163.02,-124.72 163.07,-124.37 163.00,-124.03 162.94,-123.69 162.77,-123.38 162.60,-123.07 162.34,-122.84 162.09,-122.60 161.77,-122.46 161.45,-122.32 161.10,-122.29 160.75,-122.26 160.41,-122.34 160.07,-122.42 159.78,-122.61 159.48,-122.79 159.26,-123.06 159.04,-123.33 158.91,-123.66 158.79,-123.99 158.78,-124.34 158.77,-124.69 158.87,-125.02 158.97,-125.36 159.17,-125.64 159.37,-125.93 159.65,-126.13 159.93,-126.34 160.27,-126.44 160.60,-126.55 160.95,-126.54 161.30,-126.54 161.63,-126.42 161.95,-126.30 162.23,-126.08 162.50,-125.87 162.69,-125.58 162.88,-125.28 162.97,-124.94 163.06,-124.61 163.03,-124.26 163.01,-123.91 162.87,-123.59 162.74,-123.27 162.51,-123.00 162.27,-122.74 161.97,-122.57 161.67,-122.39 161.33,-122.32 160.98,-122.26 160.98,-122.26 160.98,-122.26 158.74,-122.25 156.50,-122.24 153.19,-121.99 149.88,-121.74 146.20,-121.27 142.52,-120.81 141.12,-120.80 139.72,-120.79 138.33,-120.75 136.94,-120.72 135.12,-120.55 133.30,-120.39 130.69,-120.43 128.07,-120.47 126.55,-120.45 125.03,-120.43 123.23,-120.48 121.43,-120.54 120.05,-120.63 118.67,-120.71 115.93,-120.65 113.19,-120.60 110.81,-120.51 108.43,-120.43 106.96,-120.49 105.49,-120.55 102.80,-120.45 100.11,-120.35 97.92,-120.18 95.74,-120.00 94.62,-119.33 93.50,-118.66 92.33,-117.77 91.15,-116.87 88.76,-114.84 86.37,-112.81 84.76,-112.10 83.16,-111.40 79.87,-109.79 76.58,-108.18 74.56,-106.94 72.55,-105.69 69.41,-103.56 66.27,-101.44 63.26,-99.00 60.25,-96.55 58.85,-94.42 57.45,-92.30 55.62,-89.29 53.79,-86.29 52.31,-82.52 50.84,-78.75 48.47,-73.22 46.09,-67.68 44.03,-63.17 41.98,-58.67 39.00,-53.10 36.02,-47.53 32.54,-42.25 29.06,-36.96 23.35,-28.94 17.63,-20.91 13.83,-16.06 10.03,-11.22 7.61,-7.85 5.19,-4.49 3.67,-2.92 2.14,-1.35 1.96,-0.56 1.78,0.22 1.72,0.43 1.67,0.64 1.57,0.83 1.47,1.02 1.32,1.18 1.18,1.35 1.00,1.47 0.82,1.59 0.62,1.66 0.41,1.74 0.20,1.77 -0.00,1.79 -0.22,1.76 -0.43,1.74 -0.64,1.66 -0.84,1.58 -1.02,1.46 -1.19,1.33 -1.34,1.17 -1.48,1.01 -1.58,0.81 -1.68,0.62 -1.73,0.41 -1.78,0.20 -1.78,-0.00 -1.78,-0.22 -1.78,-0.22 L -1.78,-0.22 Z"></path></g><g transform="translate(289.890625 347.822265625) rotate(0 -51.779296875 83.451171875)" stroke="none"><path fill="#1e1e1e" d="M 1.59,0 Q 1.59,0 1.55,2.44 1.52,4.89 1.57,6.61 1.63,8.34 1.58,11.91 1.54,15.48 0.70,21.34 -0.13,27.21 -1.31,31.85 -2.49,36.49 -5.86,42.95 -9.23,49.42 -12.33,54.09 -15.43,58.76 -21.75,65.22 -28.07,71.68 -33.77,77.74 -39.48,83.79 -42.83,87.52 -46.18,91.25 -49.31,95.69 -52.44,100.13 -53.96,103.01 -55.47,105.89 -56.58,108.50 -57.69,111.11 -58.32,112.64 -58.95,114.17 -62.42,117.84 -65.89,121.52 -70.36,125.14 -74.82,128.76 -77.86,131.20 -80.91,133.64 -84.08,136.02 -87.25,138.39 -91.00,141.54 -94.76,144.69 -96.44,146.33 -98.13,147.96 -98.81,149.01 -99.50,150.05 -99.71,151.19 -99.91,152.33 -99.89,153.67 -99.88,155.02 -100.02,156.25 -100.17,157.47 -100.46,159.36 -100.75,161.24 -100.86,163.99 -100.97,166.75 -101.04,167.16 -101.11,167.58 -101.31,167.94 -101.51,168.31 -101.82,168.59 -102.13,168.88 -102.51,169.05 -102.89,169.22 -103.31,169.26 -103.72,169.30 -104.13,169.21 -104.54,169.11 -104.89,168.89 -105.25,168.67 -105.52,168.35 -105.78,168.03 -105.93,167.64 -106.08,167.25 -106.10,166.83 -106.12,166.41 -106.00,166.01 -105.88,165.61 -105.64,165.26 -105.41,164.92 -105.07,164.67 -104.73,164.42 -104.34,164.29 -103.94,164.17 -103.52,164.17 -103.10,164.18 -102.71,164.31 -102.31,164.45 -101.98,164.71 -101.65,164.97 -101.42,165.32 -101.19,165.66 -101.09,166.07 -100.98,166.47 -101.01,166.89 -101.03,167.31 -101.19,167.69 -101.35,168.08 -101.63,168.40 -101.90,168.71 -102.26,168.92 -102.62,169.13 -103.03,169.22 -103.44,169.30 -103.86,169.25 -104.27,169.20 -104.65,169.02 -105.03,168.84 -105.33,168.55 -105.63,168.26 -105.82,167.89 -106.01,167.52 -106.07,167.10 -106.14,166.69 -106.14,166.69 -106.14,166.69 -106.04,164.70 -105.94,162.70 -105.79,161.58 -105.64,160.47 -105.28,158.42 -104.93,156.38 -104.45,154.84 -103.98,153.31 -103.55,151.73 -103.12,150.15 -102.55,149.12 -101.98,148.10 -100.99,147.07 -100.00,146.04 -98.25,144.33 -96.50,142.62 -92.70,139.41 -88.89,136.20 -85.77,133.84 -82.65,131.48 -79.63,129.02 -76.61,126.56 -72.31,123.04 -68.01,119.52 -64.83,116.17 -61.65,112.82 -60.89,111.45 -60.12,110.07 -58.97,107.36 -57.82,104.66 -56.22,101.63 -54.62,98.60 -51.40,94.04 -48.18,89.47 -44.81,85.71 -41.44,81.94 -35.73,75.86 -30.02,69.78 -23.87,63.50 -17.73,57.23 -14.72,52.67 -11.71,48.12 -8.49,41.95 -5.27,35.78 -4.17,31.29 -3.07,26.79 -2.30,21.14 -1.54,15.48 -1.58,11.91 -1.63,8.34 -1.57,6.61 -1.52,4.89 -1.55,2.44 -1.59,0 -1.57,-0.19 -1.55,-0.38 -1.48,-0.56 -1.41,-0.74 -1.30,-0.90 -1.19,-1.05 -1.05,-1.18 -0.90,-1.31 -0.73,-1.40 -0.56,-1.49 -0.37,-1.53 -0.19,-1.58 0.00,-1.58 0.19,-1.58 0.37,-1.53 0.56,-1.49 0.73,-1.40 0.90,-1.31 1.05,-1.18 1.19,-1.05 1.30,-0.90 1.41,-0.74 1.48,-0.56 1.55,-0.38 1.57,-0.19 1.59,0.00 1.59,0.00 L 1.59,0 Z"></path></g><g transform="translate(330.4921875 342.310546875) rotate(0 81.240234375 48.9453125)" stroke="none"><path fill="#1e1e1e" d="M 0.66,-1.41 Q 0.66,-1.41 4.56,0.47 8.47,2.35 10.77,3.32 13.07,4.28 16.36,6.06 19.65,7.84 24.52,10.31 29.40,12.77 32.87,14.53 36.35,16.28 38.39,17.58 40.44,18.87 42.84,20.70 45.24,22.52 47.07,23.91 48.90,25.30 53.83,29.21 58.75,33.11 64.41,36.85 70.07,40.58 74.01,43.19 77.94,45.80 82.29,48.59 86.65,51.37 90.34,53.61 94.04,55.85 95.71,56.85 97.39,57.85 98.48,58.40 99.58,58.96 101.11,59.60 102.65,60.24 104.42,61.59 106.19,62.95 108.85,64.32 111.50,65.70 113.06,66.48 114.61,67.26 115.96,67.89 117.30,68.51 119.44,69.68 121.59,70.86 123.40,71.97 125.22,73.08 126.42,73.70 127.63,74.32 129.16,75.24 130.69,76.17 133.49,77.98 136.30,79.80 137.84,80.75 139.38,81.70 140.78,82.47 142.18,83.24 143.48,83.90 144.78,84.56 146.57,85.43 148.35,86.30 150.98,87.82 153.60,89.34 154.63,89.82 155.66,90.30 156.96,91.16 158.26,92.02 159.28,92.78 160.30,93.55 162.09,94.65 163.88,95.76 164.17,96.05 164.46,96.34 164.64,96.71 164.82,97.09 164.88,97.49 164.93,97.90 164.85,98.31 164.77,98.71 164.56,99.07 164.36,99.43 164.05,99.70 163.74,99.98 163.36,100.14 162.98,100.30 162.57,100.33 162.16,100.36 161.76,100.26 161.36,100.15 161.01,99.93 160.67,99.70 160.41,99.38 160.15,99.06 160.01,98.67 159.88,98.28 159.87,97.87 159.86,97.46 159.98,97.06 160.11,96.67 160.35,96.34 160.59,96.00 160.93,95.76 161.26,95.53 161.66,95.41 162.06,95.29 162.47,95.30 162.88,95.32 163.27,95.46 163.65,95.61 163.97,95.87 164.29,96.13 164.51,96.48 164.73,96.83 164.83,97.23 164.93,97.63 164.89,98.04 164.85,98.45 164.69,98.83 164.52,99.21 164.24,99.51 163.97,99.82 163.61,100.02 163.25,100.22 162.84,100.29 162.43,100.37 162.03,100.31 161.62,100.25 161.25,100.06 160.88,99.88 160.88,99.88 160.88,99.88 159.06,98.73 157.24,97.57 156.14,96.72 155.04,95.87 154.28,95.10 153.51,94.33 152.54,93.74 151.56,93.16 148.79,91.77 146.02,90.38 144.25,89.35 142.48,88.33 141.37,87.43 140.26,86.54 138.85,85.68 137.44,84.82 135.92,83.86 134.40,82.91 131.52,81.26 128.64,79.62 127.12,78.73 125.59,77.84 124.49,77.12 123.40,76.41 121.32,75.40 119.25,74.38 117.41,73.13 115.57,71.87 114.26,71.13 112.96,70.39 111.48,69.56 110.00,68.74 107.04,67.34 104.07,65.94 102.43,64.87 100.78,63.79 99.30,62.75 97.82,61.72 96.86,60.97 95.91,60.22 94.29,59.16 92.67,58.10 88.95,55.85 85.22,53.59 80.85,50.80 76.48,48.00 72.55,45.40 68.61,42.79 62.86,38.99 57.10,35.19 52.20,31.31 47.30,27.42 45.46,26.04 43.62,24.66 41.31,22.90 39.00,21.15 37.06,19.94 35.13,18.72 31.64,16.98 28.15,15.24 23.24,12.78 18.32,10.32 15.14,8.64 11.97,6.96 9.58,6.00 7.19,5.05 3.26,3.23 -0.66,1.41 -0.82,1.31 -0.98,1.21 -1.11,1.07 -1.24,0.93 -1.34,0.77 -1.43,0.61 -1.48,0.43 -1.54,0.25 -1.54,0.06 -1.55,-0.12 -1.51,-0.30 -1.48,-0.49 -1.40,-0.66 -1.32,-0.83 -1.20,-0.97 -1.08,-1.12 -0.93,-1.23 -0.78,-1.35 -0.60,-1.42 -0.43,-1.50 -0.24,-1.53 -0.06,-1.56 0.12,-1.54 0.31,-1.53 0.48,-1.47 0.66,-1.41 0.66,-1.41 L 0.66,-1.41 Z"></path></g><g transform="translate(526.8515625 200.037109375) rotate(0 11.5234375 121.462890625)" stroke="none"><path fill="#1e1e1e" d="M 1.11,-1.09 Q 1.11,-1.09 2.96,0.85 4.81,2.79 7.98,8.82 11.16,14.84 12.83,22.50 14.49,30.17 14.55,40.25 14.60,50.33 14.06,57.09 13.52,63.85 12.35,71.75 11.17,79.64 10.12,88.28 9.06,96.92 8.34,103.08 7.61,109.24 7.30,116.80 7.00,124.37 6.87,129.72 6.73,135.06 7.29,141.91 7.85,148.76 8.09,152.39 8.33,156.02 9.48,162.45 10.63,168.88 11.72,175.20 12.81,181.53 13.68,185.22 14.55,188.91 15.66,192.19 16.77,195.48 18.21,199.70 19.65,203.92 20.44,206.42 21.23,208.91 21.59,211.10 21.94,213.28 22.17,215.04 22.40,216.80 22.56,218.24 22.72,219.68 22.95,221.61 23.18,223.54 23.39,224.73 23.61,225.93 23.85,227.75 24.09,229.58 24.38,230.62 24.67,231.67 24.98,232.78 25.29,233.89 25.42,235.12 25.55,236.34 24.60,238.24 23.66,240.14 22.45,241.22 21.24,242.29 19.29,243.80 17.33,245.31 16.92,245.40 16.51,245.48 16.09,245.43 15.67,245.38 15.29,245.20 14.91,245.01 14.61,244.72 14.31,244.43 14.12,244.05 13.92,243.67 13.86,243.26 13.80,242.84 13.87,242.43 13.95,242.01 14.15,241.64 14.35,241.27 14.66,240.99 14.98,240.70 15.36,240.53 15.75,240.36 16.16,240.32 16.58,240.28 16.99,240.38 17.41,240.47 17.76,240.70 18.12,240.92 18.39,241.24 18.66,241.57 18.81,241.96 18.96,242.36 18.97,242.78 18.99,243.20 18.87,243.60 18.75,244.01 18.51,244.35 18.27,244.70 17.93,244.95 17.59,245.20 17.19,245.33 16.79,245.46 16.37,245.45 15.95,245.44 15.55,245.30 15.15,245.16 14.82,244.90 14.49,244.64 14.26,244.29 14.02,243.94 13.92,243.53 13.81,243.12 13.84,242.70 13.87,242.28 14.03,241.89 14.19,241.50 14.47,241.19 14.75,240.87 15.11,240.66 15.48,240.44 15.48,240.44 15.48,240.44 16.61,239.46 17.74,238.49 19.18,237.08 20.61,235.68 20.69,234.05 20.77,232.42 20.64,231.25 20.50,230.07 20.23,228.17 19.96,226.27 19.96,225.11 19.95,223.96 19.66,221.89 19.37,219.82 19.42,218.43 19.46,217.05 19.40,215.37 19.34,213.70 19.03,211.70 18.72,209.70 17.95,207.24 17.17,204.77 15.72,200.55 14.28,196.32 13.13,192.92 11.99,189.51 11.10,185.74 10.21,181.98 9.13,175.66 8.04,169.34 6.87,162.77 5.70,156.19 5.46,152.58 5.22,148.97 4.65,141.99 4.09,135.00 4.22,129.63 4.35,124.26 4.65,116.59 4.96,108.93 5.68,102.76 6.40,96.60 7.45,87.92 8.50,79.25 9.65,71.44 10.80,63.64 11.32,56.99 11.84,50.34 11.79,40.55 11.74,30.75 10.17,23.45 8.59,16.16 5.62,10.50 2.65,4.85 0.76,2.97 -1.11,1.09 -1.23,0.94 -1.34,0.79 -1.42,0.61 -1.49,0.44 -1.52,0.25 -1.56,0.07 -1.54,-0.11 -1.53,-0.30 -1.47,-0.48 -1.41,-0.65 -1.31,-0.81 -1.21,-0.97 -1.08,-1.11 -0.94,-1.24 -0.78,-1.33 -0.62,-1.43 -0.44,-1.48 -0.26,-1.54 -0.07,-1.54 0.11,-1.55 0.29,-1.52 0.48,-1.48 0.65,-1.40 0.82,-1.32 0.97,-1.20 1.11,-1.09 1.11,-1.09 L 1.11,-1.09 Z"></path></g><g transform="translate(223.55859375 543.822265625) rotate(0 145.673828125 -28.171875)" stroke="none"><path fill="#1e1e1e" d="M -0.23,-1.97 Q -0.23,-1.97 1.19,-2.19 2.62,-2.40 5.73,-2.65 8.84,-2.90 10.43,-3.17 12.02,-3.45 14.04,-3.93 16.05,-4.40 17.51,-5.10 18.97,-5.81 25.56,-7.31 32.15,-8.81 40.20,-9.73 48.26,-10.64 53.41,-11.25 58.56,-11.86 63.57,-12.66 68.58,-13.47 72.49,-14.05 76.40,-14.63 83.81,-15.51 91.21,-16.38 103.23,-18.59 115.24,-20.79 122.81,-22.55 130.39,-24.31 137.18,-26.54 143.98,-28.78 148.66,-30.24 153.34,-31.70 161.43,-33.51 169.51,-35.31 179.02,-36.64 188.52,-37.96 195.70,-39.39 202.88,-40.82 207.72,-41.68 212.56,-42.54 219.15,-44.52 225.73,-46.50 229.95,-47.82 234.17,-49.13 237.41,-49.94 240.65,-50.74 244.17,-51.36 247.70,-51.97 249.85,-52.39 251.99,-52.82 255.48,-53.01 258.97,-53.20 261.42,-53.49 263.87,-53.77 267.40,-54.17 270.94,-54.56 276.31,-55.30 281.68,-56.03 284.03,-56.42 286.37,-56.80 288.63,-57.23 290.88,-57.66 291.11,-57.66 291.33,-57.67 291.54,-57.60 291.76,-57.53 291.94,-57.40 292.12,-57.26 292.24,-57.08 292.37,-56.90 292.44,-56.68 292.50,-56.47 292.49,-56.25 292.48,-56.02 292.40,-55.81 292.32,-55.61 292.18,-55.43 292.04,-55.26 291.85,-55.14 291.66,-55.02 291.44,-54.97 291.22,-54.92 291.00,-54.94 290.78,-54.96 290.57,-55.06 290.37,-55.15 290.20,-55.30 290.04,-55.45 289.93,-55.64 289.82,-55.84 289.79,-56.06 289.75,-56.28 289.78,-56.50 289.81,-56.72 289.91,-56.92 290.02,-57.12 290.18,-57.28 290.34,-57.43 290.54,-57.53 290.74,-57.63 290.96,-57.65 291.18,-57.68 291.40,-57.64 291.62,-57.59 291.81,-57.48 292.01,-57.37 292.15,-57.20 292.30,-57.03 292.39,-56.82 292.47,-56.62 292.49,-56.39 292.50,-56.17 292.45,-55.95 292.39,-55.74 292.27,-55.55 292.14,-55.36 291.97,-55.23 291.79,-55.09 291.58,-55.01 291.37,-54.94 291.37,-54.94 291.37,-54.94 289.08,-54.58 286.80,-54.21 284.42,-53.82 282.04,-53.43 276.64,-52.69 271.24,-51.95 267.70,-51.55 264.17,-51.16 261.64,-50.87 259.11,-50.58 255.81,-50.41 252.50,-50.24 250.32,-49.81 248.15,-49.38 244.72,-48.78 241.28,-48.19 238.12,-47.40 234.96,-46.62 230.72,-45.29 226.49,-43.97 219.76,-41.95 213.03,-39.94 208.22,-39.07 203.40,-38.21 196.15,-36.77 188.89,-35.32 179.49,-34.01 170.09,-32.69 162.12,-30.91 154.15,-29.12 149.49,-27.65 144.83,-26.19 137.93,-23.90 131.02,-21.61 123.39,-19.81 115.75,-18.02 103.66,-15.76 91.56,-13.51 84.22,-12.59 76.87,-11.67 72.99,-11.02 69.10,-10.37 64.05,-9.46 59.00,-8.55 53.85,-7.81 48.70,-7.07 40.80,-6.00 32.89,-4.92 27.76,-3.85 22.63,-2.78 20.96,-2.22 19.28,-1.67 18.13,-1.33 16.98,-1.00 14.80,-0.32 12.62,0.35 10.94,0.58 9.26,0.82 6.19,1.27 3.11,1.72 1.67,1.84 0.23,1.97 -0.00,1.97 -0.24,1.97 -0.47,1.91 -0.71,1.85 -0.92,1.74 -1.13,1.63 -1.31,1.47 -1.49,1.31 -1.62,1.11 -1.76,0.92 -1.84,0.69 -1.93,0.47 -1.96,0.23 -1.99,-0.00 -1.96,-0.24 -1.93,-0.48 -1.84,-0.70 -1.75,-0.92 -1.62,-1.12 -1.48,-1.32 -1.30,-1.48 -1.12,-1.64 -0.91,-1.75 -0.70,-1.86 -0.46,-1.91 -0.23,-1.97 -0.23,-1.97 L -0.23,-1.97 Z"></path></g><g transform="translate(45.0859375 200.533203125) rotate(0 59.443359375 159.203125)" stroke="none"><path fill="#1e1e1e" d="M 2.50,0 Q 2.50,0 2.54,0.97 2.59,1.94 2.68,3.09 2.78,4.24 2.88,5.31 2.97,6.39 2.87,8.74 2.78,11.09 2.79,12.20 2.80,13.31 2.87,15.77 2.94,18.24 3.11,20.35 3.28,22.46 3.84,27.64 4.40,32.83 6.12,39.56 7.85,46.28 9.39,51.66 10.92,57.03 14.10,65.03 17.27,73.02 20.02,78.97 22.78,84.92 26.66,93.56 30.54,102.20 33.44,110.57 36.34,118.94 37.84,128.64 39.34,138.33 39.97,144.19 40.59,150.05 40.86,155.77 41.12,161.49 41.54,169.94 41.95,178.39 42.13,183.40 42.30,188.40 43.24,193.63 44.17,198.86 45.03,202.49 45.89,206.12 47.04,209.75 48.19,213.37 51.41,219.19 54.64,225.00 56.94,228.66 59.25,232.32 61.67,236.46 64.08,240.60 65.24,242.49 66.41,244.37 68.60,247.72 70.79,251.07 72.34,253.32 73.89,255.57 76.62,260.16 79.35,264.76 81.06,267.71 82.77,270.66 83.84,272.60 84.91,274.54 86.90,276.63 88.89,278.73 90.05,279.79 91.21,280.86 93.32,282.25 95.42,283.65 96.50,284.29 97.58,284.93 98.86,285.95 100.14,286.96 100.98,287.90 101.82,288.83 102.31,290.95 102.80,293.07 102.82,294.44 102.84,295.80 103.25,297.08 103.66,298.37 104.42,299.12 105.18,299.88 106.56,301.19 107.93,302.50 109.38,304.03 110.84,305.56 111.25,306.90 111.67,308.24 112.63,309.37 113.60,310.49 115.16,311.78 116.73,313.07 117.66,313.74 118.59,314.41 120.17,315.99 121.76,317.57 121.80,318.06 121.85,318.54 121.74,319.01 121.62,319.48 121.37,319.89 121.11,320.30 120.74,320.61 120.37,320.92 119.91,321.09 119.46,321.26 118.98,321.28 118.49,321.30 118.03,321.16 117.56,321.03 117.17,320.75 116.77,320.47 116.48,320.08 116.20,319.69 116.05,319.23 115.90,318.77 115.91,318.28 115.92,317.80 116.08,317.34 116.24,316.89 116.54,316.51 116.84,316.13 117.24,315.86 117.65,315.59 118.12,315.47 118.59,315.35 119.07,315.38 119.55,315.42 120.00,315.60 120.45,315.79 120.81,316.11 121.17,316.43 121.42,316.85 121.66,317.27 121.76,317.74 121.85,318.22 121.79,318.70 121.73,319.18 121.52,319.61 121.31,320.05 120.97,320.39 120.64,320.74 120.20,320.96 119.77,321.18 119.29,321.25 118.82,321.32 118.34,321.24 117.86,321.15 117.44,320.92 117.01,320.68 116.69,320.33 116.36,319.97 116.16,319.53 115.97,319.08 115.97,319.08 115.97,319.09 114.58,318.35 113.18,317.61 111.23,316.02 109.29,314.43 108.07,312.69 106.85,310.95 106.57,309.48 106.29,308.01 105.60,307.10 104.91,306.19 103.09,304.89 101.27,303.58 99.95,302.13 98.62,300.68 98.03,298.29 97.43,295.91 97.40,294.63 97.37,293.36 97.06,291.92 96.74,290.48 95.95,289.57 95.16,288.67 94.21,287.78 93.26,286.89 91.80,285.88 90.34,284.87 89.56,284.07 88.79,283.26 87.73,282.09 86.67,280.92 85.16,279.38 83.65,277.85 83.13,276.83 82.61,275.81 81.55,273.89 80.49,271.97 78.79,269.04 77.09,266.10 74.41,261.58 71.72,257.06 70.16,254.78 68.59,252.51 66.38,249.13 64.17,245.75 62.99,243.84 61.81,241.93 59.41,237.83 57.02,233.72 54.67,230.00 52.33,226.28 49.00,220.23 45.68,214.18 44.50,210.45 43.32,206.73 42.44,203.03 41.56,199.33 40.60,193.91 39.64,188.50 39.46,183.51 39.28,178.53 38.85,170.07 38.43,161.61 38.16,155.98 37.89,150.34 37.25,144.55 36.62,138.75 35.15,129.30 33.69,119.86 30.81,111.62 27.92,103.38 24.00,94.78 20.09,86.18 17.24,80.18 14.40,74.17 11.09,66.07 7.79,57.97 6.12,52.58 4.45,47.19 2.52,40.26 0.59,33.33 -0.17,28.21 -0.94,23.09 -1.41,20.91 -1.88,18.74 -2.34,16.02 -2.80,13.31 -2.79,12.20 -2.78,11.09 -2.87,8.74 -2.97,6.39 -2.88,5.31 -2.78,4.24 -2.68,3.09 -2.59,1.94 -2.54,0.97 -2.50,0 -2.47,-0.30 -2.43,-0.60 -2.32,-0.88 -2.22,-1.16 -2.04,-1.41 -1.87,-1.66 -1.65,-1.86 -1.42,-2.06 -1.15,-2.20 -0.88,-2.34 -0.59,-2.41 -0.30,-2.48 0.00,-2.48 0.30,-2.48 0.59,-2.41 0.88,-2.34 1.15,-2.20 1.42,-2.06 1.65,-1.86 1.87,-1.66 2.04,-1.41 2.22,-1.16 2.32,-0.88 2.43,-0.60 2.47,-0.29 2.50,0.00 2.50,0.00 L 2.50,0 Z"></path></g><g transform="translate(63.62890625 190.087890625) rotate(0 105.7421875 65.720703125)" stroke="none"><path fill="#1e1e1e" d="M 0.57,-1.48 Q 0.57,-1.48 3.04,-0.47 5.50,0.52 7.22,1.05 8.93,1.59 12.19,2.99 15.44,4.39 17.50,5.34 19.55,6.28 23.01,8.32 26.47,10.35 29.47,12.50 32.47,14.64 34.26,16.08 36.04,17.51 38.42,19.74 40.80,21.97 42.60,23.51 44.40,25.04 48.61,28.35 52.81,31.66 56.55,34.73 60.28,37.81 62.88,39.72 65.47,41.62 70.12,45.46 74.77,49.30 79.43,53.62 84.09,57.94 87.21,60.81 90.33,63.68 93.67,66.66 97.01,69.64 102.12,73.24 107.23,76.83 110.60,79.32 113.98,81.81 118.98,84.95 123.99,88.09 126.46,89.65 128.93,91.21 133.89,93.97 138.85,96.74 142.92,99.13 146.98,101.53 149.01,102.64 151.04,103.76 152.30,104.35 153.56,104.95 155.90,106.33 158.25,107.71 161.98,109.41 165.71,111.11 167.49,111.88 169.26,112.66 172.41,113.91 175.55,115.16 177.81,116.36 180.07,117.56 181.10,117.93 182.14,118.30 184.01,119.05 185.88,119.80 186.86,120.23 187.83,120.65 190.47,121.69 193.10,122.72 194.52,123.23 195.94,123.74 197.16,123.99 198.37,124.25 200.10,124.58 201.83,124.91 203.35,125.27 204.86,125.62 206.36,126.16 207.87,126.69 210.34,127.84 212.81,128.99 213.15,129.29 213.49,129.59 213.71,129.98 213.93,130.37 214.02,130.81 214.10,131.25 214.04,131.70 213.98,132.15 213.78,132.55 213.58,132.95 213.26,133.27 212.95,133.59 212.54,133.79 212.14,133.99 211.69,134.06 211.25,134.12 210.81,134.03 210.36,133.95 209.97,133.73 209.58,133.51 209.28,133.17 208.98,132.84 208.80,132.42 208.62,132.01 208.58,131.56 208.54,131.11 208.65,130.68 208.76,130.24 209.00,129.86 209.24,129.48 209.59,129.20 209.95,128.91 210.37,128.76 210.79,128.60 211.24,128.59 211.69,128.58 212.12,128.71 212.55,128.84 212.92,129.10 213.28,129.36 213.55,129.73 213.81,130.09 213.94,130.52 214.08,130.95 214.06,131.40 214.05,131.86 213.90,132.28 213.74,132.70 213.46,133.05 213.18,133.40 212.80,133.65 212.42,133.89 211.99,134.00 211.55,134.11 211.10,134.07 210.65,134.04 210.24,133.86 209.82,133.68 209.82,133.68 209.82,133.68 207.95,132.71 206.08,131.74 204.94,131.34 203.79,130.94 202.26,130.69 200.73,130.44 199.61,130.20 198.48,129.97 197.37,129.57 196.25,129.17 195.08,128.63 193.90,128.10 192.63,127.39 191.36,126.67 189.79,126.02 188.22,125.36 186.24,124.35 184.26,123.33 182.48,122.30 180.69,121.27 179.72,120.66 178.75,120.05 176.63,118.95 174.51,117.85 171.27,116.61 168.03,115.38 166.28,114.55 164.53,113.73 160.65,112.01 156.77,110.29 154.39,108.96 152.01,107.63 150.89,106.84 149.77,106.06 147.71,104.93 145.65,103.79 141.61,101.41 137.57,99.03 132.55,96.23 127.52,93.43 125.06,91.87 122.59,90.31 117.50,87.12 112.41,83.93 109.06,81.46 105.71,78.98 100.48,75.30 95.26,71.61 91.90,68.61 88.55,65.62 85.42,62.75 82.29,59.87 77.69,55.61 73.08,51.34 68.49,47.55 63.91,43.76 61.25,41.81 58.60,39.86 54.88,36.81 51.16,33.76 46.91,30.42 42.66,27.09 40.81,25.52 38.95,23.95 36.65,21.80 34.34,19.66 32.60,18.28 30.85,16.91 27.95,14.86 25.04,12.80 21.70,10.88 18.36,8.95 16.32,8.07 14.27,7.19 11.10,5.89 7.92,4.60 6.16,3.97 4.40,3.34 1.91,2.41 -0.57,1.48 -0.74,1.38 -0.91,1.29 -1.05,1.17 -1.19,1.04 -1.30,0.88 -1.41,0.72 -1.48,0.54 -1.54,0.36 -1.56,0.17 -1.58,-0.01 -1.56,-0.20 -1.53,-0.39 -1.46,-0.57 -1.39,-0.75 -1.28,-0.90 -1.17,-1.06 -1.03,-1.19 -0.88,-1.31 -0.71,-1.40 -0.54,-1.49 -0.36,-1.53 -0.17,-1.57 0.01,-1.57 0.20,-1.57 0.39,-1.52 0.57,-1.48 0.57,-1.48 L 0.57,-1.48 Z"></path></g><g transform="translate(282.05078125 64.810546875) rotate(0 27.6953125 120.931640625)" stroke="none"><path fill="#1e1e1e" d="M 1.33,-0.81 Q 1.33,-0.81 3.65,3.06 5.96,6.93 7.14,9.31 8.31,11.70 9.71,16.32 11.10,20.95 12.89,27.16 14.69,33.37 16.34,39.58 17.99,45.79 19.62,53.09 21.25,60.39 22.22,65.99 23.19,71.60 24.25,80.44 25.31,89.28 26.93,100.12 28.55,110.97 29.76,117.68 30.98,124.40 33.37,132.23 35.76,140.07 39.36,149.11 42.95,158.16 45.86,165.55 48.78,172.94 50.43,177.12 52.09,181.30 53.21,186.34 54.33,191.38 54.81,194.93 55.28,198.49 55.48,202.84 55.68,207.18 55.97,210.01 56.26,212.84 56.39,215.86 56.52,218.87 56.68,220.28 56.85,221.69 56.94,223.35 57.03,225.01 57.07,228.20 57.11,231.38 57.09,233.34 57.08,235.30 57.27,237.06 57.46,238.82 57.20,240.42 56.95,242.02 56.86,242.35 56.77,242.67 56.57,242.95 56.38,243.23 56.11,243.43 55.84,243.63 55.52,243.74 55.20,243.84 54.86,243.84 54.52,243.83 54.20,243.72 53.88,243.61 53.61,243.40 53.35,243.20 53.16,242.91 52.97,242.63 52.89,242.31 52.80,241.98 52.82,241.64 52.84,241.30 52.97,240.99 53.10,240.68 53.32,240.42 53.54,240.17 53.84,240.00 54.13,239.83 54.46,239.76 54.79,239.69 55.12,239.73 55.46,239.77 55.77,239.91 56.07,240.06 56.31,240.29 56.56,240.53 56.71,240.83 56.87,241.13 56.92,241.46 56.97,241.80 56.91,242.13 56.85,242.46 56.69,242.76 56.53,243.06 56.28,243.29 56.03,243.52 55.73,243.66 55.42,243.79 55.08,243.83 54.74,243.86 54.41,243.78 54.09,243.71 53.80,243.53 53.51,243.35 53.29,243.09 53.08,242.83 52.96,242.52 52.83,242.20 52.82,241.86 52.81,241.53 52.81,241.53 52.81,241.53 53.06,240.17 53.32,238.82 53.50,237.06 53.69,235.31 53.67,233.35 53.65,231.39 53.66,228.22 53.68,225.06 53.72,223.43 53.76,221.81 53.83,220.40 53.89,218.98 53.77,216.04 53.65,213.10 53.35,210.20 53.06,207.30 52.87,203.07 52.67,198.84 52.22,195.39 51.76,191.95 50.70,187.11 49.64,182.26 47.98,178.08 46.33,173.90 43.41,166.52 40.50,159.13 36.87,149.98 33.24,140.84 30.81,132.86 28.38,124.87 27.15,118.12 25.92,111.36 24.29,100.48 22.66,89.60 21.61,80.83 20.55,72.06 19.58,66.52 18.62,60.98 16.99,53.74 15.35,46.49 13.69,40.32 12.03,34.14 10.22,27.95 8.41,21.77 7.07,17.38 5.72,12.99 4.57,10.73 3.41,8.48 1.03,4.64 -1.33,0.81 -1.41,0.64 -1.49,0.46 -1.52,0.28 -1.55,0.09 -1.54,-0.08 -1.53,-0.27 -1.48,-0.45 -1.42,-0.63 -1.32,-0.79 -1.23,-0.95 -1.09,-1.09 -0.96,-1.22 -0.80,-1.32 -0.64,-1.42 -0.46,-1.47 -0.28,-1.53 -0.09,-1.54 0.09,-1.55 0.27,-1.52 0.46,-1.49 0.63,-1.41 0.80,-1.33 0.95,-1.22 1.10,-1.10 1.21,-0.95 1.33,-0.81 1.33,-0.81 L 1.33,-0.81 Z"></path></g><g transform="translate(267.01171875 68.087890625) rotate(0 -40.953125 220.62109375)" stroke="none"><path fill="#1e1e1e" d="M 1.69,0 Q 1.69,0 1.73,1.65 1.78,3.31 1.73,5.37 1.68,7.44 1.68,9.36 1.68,11.28 1.75,12.78 1.82,14.27 1.75,17.39 1.68,20.51 1.63,22.87 1.58,25.24 1.54,31.57 1.50,37.90 -0.91,47.88 -3.33,57.85 -6.21,66.06 -9.10,74.26 -11.39,79.87 -13.69,85.48 -16.11,93.82 -18.53,102.16 -19.56,109.56 -20.58,116.96 -21.02,123.44 -21.46,129.93 -21.65,135.84 -21.84,141.76 -21.92,146.71 -22.01,151.67 -22.04,154.46 -22.08,157.25 -22.36,160.61 -22.65,163.96 -22.76,168.49 -22.88,173.02 -22.93,177.39 -22.99,181.77 -23.01,184.31 -23.03,186.85 -23.31,190.11 -23.59,193.36 -23.68,195.38 -23.78,197.41 -23.83,201.05 -23.89,204.69 -23.91,208.36 -23.94,212.04 -23.95,216.40 -23.96,220.77 -23.97,223.66 -23.97,226.56 -23.98,228.83 -23.98,231.10 -23.85,232.21 -23.72,233.33 -23.73,234.53 -23.73,235.73 -23.78,237.54 -23.83,239.35 -23.76,240.47 -23.69,241.59 -23.81,242.89 -23.92,244.19 -24.22,245.61 -24.52,247.02 -26.11,251.20 -27.70,255.38 -29.75,259.00 -31.79,262.62 -33.07,265.10 -34.35,267.58 -35.66,270.39 -36.98,273.19 -37.57,274.72 -38.17,276.26 -38.88,279.54 -39.60,282.83 -40.50,286.77 -41.39,290.72 -41.88,292.73 -42.36,294.74 -42.99,296.70 -43.62,298.65 -43.95,299.71 -44.28,300.78 -45.29,302.28 -46.29,303.78 -47.20,304.94 -48.11,306.11 -49.04,308.07 -49.96,310.02 -50.77,311.85 -51.58,313.69 -52.29,316.12 -53.01,318.56 -53.20,319.72 -53.39,320.89 -53.51,322.58 -53.62,324.27 -53.97,326.81 -54.31,329.35 -54.48,332.48 -54.64,335.60 -54.64,337.28 -54.64,338.95 -54.71,342.13 -54.79,345.30 -54.75,347.00 -54.71,348.70 -55.37,350.57 -56.02,352.43 -56.64,353.54 -57.26,354.64 -59.29,355.97 -61.31,357.30 -63.58,359.25 -65.84,361.19 -67.11,362.63 -68.37,364.07 -69.69,368.00 -71.01,371.92 -71.91,376.79 -72.80,381.65 -73.20,385.26 -73.59,388.87 -73.94,391.27 -74.30,393.68 -74.32,395.01 -74.35,396.33 -74.45,398.59 -74.55,400.86 -74.46,401.99 -74.38,403.13 -74.73,406.47 -75.08,409.80 -75.24,412.21 -75.41,414.61 -75.43,415.85 -75.45,417.09 -75.57,418.66 -75.68,420.22 -76.55,421.85 -77.42,423.49 -78.04,425.95 -78.67,428.41 -78.90,429.70 -79.13,430.98 -79.22,432.43 -79.31,433.87 -79.25,435.32 -79.19,436.77 -79.26,439.16 -79.33,441.55 -79.47,441.95 -79.60,442.34 -79.86,442.67 -80.11,443.01 -80.46,443.24 -80.81,443.47 -81.21,443.58 -81.61,443.69 -82.03,443.67 -82.45,443.64 -82.84,443.49 -83.22,443.33 -83.54,443.06 -83.86,442.79 -84.07,442.43 -84.29,442.07 -84.38,441.66 -84.46,441.25 -84.42,440.83 -84.37,440.42 -84.19,440.04 -84.02,439.66 -83.73,439.36 -83.44,439.05 -83.07,438.86 -82.70,438.66 -82.28,438.60 -81.87,438.53 -81.46,438.60 -81.04,438.67 -80.68,438.87 -80.31,439.07 -80.02,439.37 -79.73,439.68 -79.56,440.06 -79.39,440.44 -79.34,440.86 -79.30,441.27 -79.39,441.68 -79.48,442.09 -79.70,442.45 -79.92,442.80 -80.24,443.07 -80.56,443.34 -80.95,443.49 -81.34,443.65 -81.76,443.67 -82.17,443.69 -82.58,443.58 -82.98,443.46 -83.32,443.23 -83.67,442.99 -83.92,442.65 -84.17,442.32 -84.30,441.92 -84.44,441.53 -84.43,441.11 -84.43,440.69 -84.43,440.69 -84.43,440.69 -84.23,438.65 -84.03,436.61 -83.83,435.08 -83.62,433.54 -83.47,431.81 -83.32,430.07 -82.98,428.78 -82.65,427.49 -81.94,424.23 -81.24,420.97 -80.43,419.91 -79.63,418.86 -79.30,417.79 -78.96,416.71 -78.73,415.59 -78.50,414.46 -78.42,411.99 -78.34,409.52 -78.12,406.28 -77.90,403.05 -77.76,401.91 -77.63,400.78 -77.60,398.38 -77.58,395.99 -77.33,394.64 -77.07,393.30 -76.76,390.93 -76.45,388.57 -76.08,384.85 -75.72,381.13 -74.82,376.03 -73.93,370.94 -72.41,366.49 -70.90,362.04 -69.50,360.35 -68.11,358.67 -65.72,356.46 -63.34,354.25 -61.35,352.65 -59.35,351.06 -58.75,349.83 -58.14,348.59 -58.09,346.94 -58.03,345.28 -58.07,342.07 -58.11,338.85 -58.01,337.17 -57.91,335.49 -57.86,332.24 -57.80,328.99 -57.63,326.51 -57.45,324.03 -57.33,322.00 -57.20,319.98 -56.84,318.82 -56.47,317.67 -55.86,314.98 -55.25,312.30 -54.56,310.19 -53.87,308.09 -52.49,305.82 -51.10,303.56 -50.18,302.59 -49.26,301.62 -47.88,299.67 -46.50,297.71 -45.90,295.88 -45.29,294.05 -44.83,292.06 -44.38,290.07 -43.56,286.12 -42.75,282.17 -42.04,278.55 -41.33,274.93 -40.62,273.40 -39.91,271.87 -38.67,268.98 -37.44,266.10 -36.26,263.48 -35.08,260.86 -33.31,257.37 -31.54,253.87 -30.16,249.93 -28.78,245.99 -28.20,243.75 -27.61,241.51 -27.50,240.39 -27.39,239.27 -27.14,236.30 -26.88,233.32 -26.75,232.21 -26.62,231.10 -26.62,228.83 -26.62,226.56 -26.62,223.66 -26.62,220.76 -26.61,216.39 -26.61,212.02 -26.59,208.34 -26.57,204.65 -26.53,200.95 -26.48,197.25 -26.34,195.19 -26.21,193.13 -25.93,189.98 -25.66,186.83 -25.64,184.28 -25.62,181.74 -25.57,177.34 -25.52,172.95 -25.40,168.34 -25.28,163.74 -25.00,160.48 -24.73,157.22 -24.69,154.42 -24.66,151.63 -24.59,146.65 -24.51,141.67 -24.32,135.71 -24.14,129.75 -23.70,123.17 -23.26,116.59 -22.21,109.00 -21.16,101.41 -18.71,92.92 -16.26,84.44 -14.02,78.88 -11.77,73.33 -8.97,65.25 -6.16,57.17 -3.83,47.52 -1.50,37.88 -1.54,31.56 -1.58,25.24 -1.63,22.87 -1.68,20.51 -1.75,17.39 -1.82,14.27 -1.75,12.78 -1.68,11.28 -1.68,9.36 -1.68,7.44 -1.73,5.37 -1.78,3.31 -1.73,1.65 -1.69,0 -1.66,-0.20 -1.64,-0.40 -1.56,-0.59 -1.49,-0.78 -1.38,-0.95 -1.26,-1.12 -1.11,-1.25 -0.96,-1.39 -0.78,-1.48 -0.59,-1.58 -0.40,-1.63 -0.20,-1.67 0.00,-1.67 0.20,-1.67 0.40,-1.63 0.59,-1.58 0.78,-1.48 0.96,-1.39 1.11,-1.25 1.26,-1.12 1.38,-0.95 1.49,-0.78 1.57,-0.59 1.64,-0.40 1.66,-0.20 1.69,0.00 1.69,0.00 L 1.69,0 Z"></path></g></svg>